<mxfile host="app.diagrams.net" modified="2024-04-03T18:14:08.343Z" agent="Mozilla/5.0 (Windows NT 10.0; Win64; x64; rv:124.0) Gecko/20100101 Firefox/124.0" etag="9JWx_6XSrpFW9uy6QCzg" version="24.2.1" type="github">
  <diagram name="Страница — 1" id="ZfBb6P8GS46RWfr1smby">
    <mxGraphModel dx="1434" dy="748" grid="1" gridSize="10" guides="1" tooltips="1" connect="1" arrows="0" fold="1" page="1" pageScale="1" pageWidth="827" pageHeight="1169" math="0" shadow="0">
      <root>
        <mxCell id="0" />
        <mxCell id="1" parent="0" />
        <mxCell id="yHfhA7FNbgSCrcxVdlkF-14" style="edgeStyle=orthogonalEdgeStyle;rounded=0;orthogonalLoop=1;jettySize=auto;html=1;exitX=0.5;exitY=1;exitDx=0;exitDy=0;entryX=0.5;entryY=0;entryDx=0;entryDy=0;endArrow=none;endFill=0;" edge="1" parent="1" source="yHfhA7FNbgSCrcxVdlkF-1" target="yHfhA7FNbgSCrcxVdlkF-7">
          <mxGeometry relative="1" as="geometry" />
        </mxCell>
        <mxCell id="yHfhA7FNbgSCrcxVdlkF-27" value="M" style="edgeLabel;html=1;align=center;verticalAlign=middle;resizable=0;points=[];" vertex="1" connectable="0" parent="yHfhA7FNbgSCrcxVdlkF-14">
          <mxGeometry x="-0.6146" relative="1" as="geometry">
            <mxPoint y="-1" as="offset" />
          </mxGeometry>
        </mxCell>
        <mxCell id="yHfhA7FNbgSCrcxVdlkF-28" value="1" style="edgeLabel;html=1;align=center;verticalAlign=middle;resizable=0;points=[];" vertex="1" connectable="0" parent="yHfhA7FNbgSCrcxVdlkF-14">
          <mxGeometry x="0.5349" relative="1" as="geometry">
            <mxPoint y="4" as="offset" />
          </mxGeometry>
        </mxCell>
        <mxCell id="yHfhA7FNbgSCrcxVdlkF-69" style="edgeStyle=orthogonalEdgeStyle;rounded=0;orthogonalLoop=1;jettySize=auto;html=1;exitX=1;exitY=0.5;exitDx=0;exitDy=0;entryX=0;entryY=0.5;entryDx=0;entryDy=0;endArrow=none;endFill=0;" edge="1" parent="1" source="yHfhA7FNbgSCrcxVdlkF-1" target="yHfhA7FNbgSCrcxVdlkF-5">
          <mxGeometry relative="1" as="geometry" />
        </mxCell>
        <mxCell id="yHfhA7FNbgSCrcxVdlkF-70" value="1" style="edgeLabel;html=1;align=center;verticalAlign=middle;resizable=0;points=[];" vertex="1" connectable="0" parent="yHfhA7FNbgSCrcxVdlkF-69">
          <mxGeometry x="-0.7111" y="1" relative="1" as="geometry">
            <mxPoint as="offset" />
          </mxGeometry>
        </mxCell>
        <mxCell id="yHfhA7FNbgSCrcxVdlkF-71" value="1" style="edgeLabel;html=1;align=center;verticalAlign=middle;resizable=0;points=[];" vertex="1" connectable="0" parent="yHfhA7FNbgSCrcxVdlkF-69">
          <mxGeometry x="0.8148" y="1" relative="1" as="geometry">
            <mxPoint as="offset" />
          </mxGeometry>
        </mxCell>
        <mxCell id="yHfhA7FNbgSCrcxVdlkF-1" value="Совет деректоров" style="rounded=0;whiteSpace=wrap;html=1;" vertex="1" parent="1">
          <mxGeometry x="440" y="150" width="120" height="60" as="geometry" />
        </mxCell>
        <mxCell id="yHfhA7FNbgSCrcxVdlkF-23" style="edgeStyle=orthogonalEdgeStyle;rounded=0;orthogonalLoop=1;jettySize=auto;html=1;exitX=0;exitY=0.5;exitDx=0;exitDy=0;entryX=0.75;entryY=1;entryDx=0;entryDy=0;endArrow=none;endFill=0;" edge="1" parent="1" source="yHfhA7FNbgSCrcxVdlkF-2" target="yHfhA7FNbgSCrcxVdlkF-3">
          <mxGeometry relative="1" as="geometry" />
        </mxCell>
        <mxCell id="yHfhA7FNbgSCrcxVdlkF-36" value="M" style="edgeLabel;html=1;align=center;verticalAlign=middle;resizable=0;points=[];" vertex="1" connectable="0" parent="yHfhA7FNbgSCrcxVdlkF-23">
          <mxGeometry x="0.9774" relative="1" as="geometry">
            <mxPoint as="offset" />
          </mxGeometry>
        </mxCell>
        <mxCell id="yHfhA7FNbgSCrcxVdlkF-45" value="M" style="edgeLabel;html=1;align=center;verticalAlign=middle;resizable=0;points=[];" vertex="1" connectable="0" parent="yHfhA7FNbgSCrcxVdlkF-23">
          <mxGeometry x="-0.9684" y="-2" relative="1" as="geometry">
            <mxPoint as="offset" />
          </mxGeometry>
        </mxCell>
        <mxCell id="yHfhA7FNbgSCrcxVdlkF-57" style="edgeStyle=orthogonalEdgeStyle;rounded=0;orthogonalLoop=1;jettySize=auto;html=1;exitX=0.5;exitY=1;exitDx=0;exitDy=0;entryX=0.5;entryY=0;entryDx=0;entryDy=0;endArrow=none;endFill=0;" edge="1" parent="1" source="yHfhA7FNbgSCrcxVdlkF-2" target="yHfhA7FNbgSCrcxVdlkF-55">
          <mxGeometry relative="1" as="geometry" />
        </mxCell>
        <mxCell id="yHfhA7FNbgSCrcxVdlkF-2" value="Завод" style="rounded=0;whiteSpace=wrap;html=1;" vertex="1" parent="1">
          <mxGeometry x="630" y="510" width="120" height="60" as="geometry" />
        </mxCell>
        <mxCell id="yHfhA7FNbgSCrcxVdlkF-17" style="edgeStyle=orthogonalEdgeStyle;rounded=0;orthogonalLoop=1;jettySize=auto;html=1;exitX=1;exitY=0.5;exitDx=0;exitDy=0;entryX=0;entryY=0.5;entryDx=0;entryDy=0;endArrow=none;endFill=0;" edge="1" parent="1" source="yHfhA7FNbgSCrcxVdlkF-3" target="yHfhA7FNbgSCrcxVdlkF-7">
          <mxGeometry relative="1" as="geometry" />
        </mxCell>
        <mxCell id="yHfhA7FNbgSCrcxVdlkF-32" value="1" style="edgeLabel;html=1;align=center;verticalAlign=middle;resizable=0;points=[];" vertex="1" connectable="0" parent="yHfhA7FNbgSCrcxVdlkF-17">
          <mxGeometry x="0.8551" y="1" relative="1" as="geometry">
            <mxPoint as="offset" />
          </mxGeometry>
        </mxCell>
        <mxCell id="yHfhA7FNbgSCrcxVdlkF-35" value="M" style="edgeLabel;html=1;align=center;verticalAlign=middle;resizable=0;points=[];" vertex="1" connectable="0" parent="yHfhA7FNbgSCrcxVdlkF-17">
          <mxGeometry x="-0.9136" relative="1" as="geometry">
            <mxPoint as="offset" />
          </mxGeometry>
        </mxCell>
        <mxCell id="yHfhA7FNbgSCrcxVdlkF-19" style="edgeStyle=orthogonalEdgeStyle;rounded=0;orthogonalLoop=1;jettySize=auto;html=1;exitX=0.5;exitY=1;exitDx=0;exitDy=0;entryX=0;entryY=0.5;entryDx=0;entryDy=0;endArrow=none;endFill=0;" edge="1" parent="1" source="yHfhA7FNbgSCrcxVdlkF-3" target="yHfhA7FNbgSCrcxVdlkF-8">
          <mxGeometry relative="1" as="geometry" />
        </mxCell>
        <mxCell id="yHfhA7FNbgSCrcxVdlkF-37" value="M" style="edgeLabel;html=1;align=center;verticalAlign=middle;resizable=0;points=[];" vertex="1" connectable="0" parent="yHfhA7FNbgSCrcxVdlkF-19">
          <mxGeometry x="-0.909" y="-1" relative="1" as="geometry">
            <mxPoint as="offset" />
          </mxGeometry>
        </mxCell>
        <mxCell id="yHfhA7FNbgSCrcxVdlkF-38" value="M" style="edgeLabel;html=1;align=center;verticalAlign=middle;resizable=0;points=[];" vertex="1" connectable="0" parent="yHfhA7FNbgSCrcxVdlkF-19">
          <mxGeometry x="0.923" relative="1" as="geometry">
            <mxPoint as="offset" />
          </mxGeometry>
        </mxCell>
        <mxCell id="yHfhA7FNbgSCrcxVdlkF-63" style="edgeStyle=orthogonalEdgeStyle;rounded=0;orthogonalLoop=1;jettySize=auto;html=1;exitX=0.25;exitY=1;exitDx=0;exitDy=0;entryX=0.25;entryY=1;entryDx=0;entryDy=0;endArrow=none;endFill=0;" edge="1" parent="1" source="yHfhA7FNbgSCrcxVdlkF-3" target="yHfhA7FNbgSCrcxVdlkF-54">
          <mxGeometry relative="1" as="geometry">
            <Array as="points">
              <mxPoint x="170" y="750" />
              <mxPoint x="660" y="750" />
            </Array>
          </mxGeometry>
        </mxCell>
        <mxCell id="yHfhA7FNbgSCrcxVdlkF-64" value="М" style="edgeLabel;html=1;align=center;verticalAlign=middle;resizable=0;points=[];" vertex="1" connectable="0" parent="yHfhA7FNbgSCrcxVdlkF-63">
          <mxGeometry x="0.9848" y="2" relative="1" as="geometry">
            <mxPoint as="offset" />
          </mxGeometry>
        </mxCell>
        <mxCell id="yHfhA7FNbgSCrcxVdlkF-65" value="М" style="edgeLabel;html=1;align=center;verticalAlign=middle;resizable=0;points=[];" vertex="1" connectable="0" parent="yHfhA7FNbgSCrcxVdlkF-63">
          <mxGeometry x="-0.979" y="-1" relative="1" as="geometry">
            <mxPoint as="offset" />
          </mxGeometry>
        </mxCell>
        <mxCell id="yHfhA7FNbgSCrcxVdlkF-66" style="edgeStyle=orthogonalEdgeStyle;rounded=0;orthogonalLoop=1;jettySize=auto;html=1;exitX=1;exitY=0.75;exitDx=0;exitDy=0;entryX=0;entryY=0.5;entryDx=0;entryDy=0;endArrow=none;endFill=0;" edge="1" parent="1" source="yHfhA7FNbgSCrcxVdlkF-3" target="yHfhA7FNbgSCrcxVdlkF-9">
          <mxGeometry relative="1" as="geometry">
            <Array as="points">
              <mxPoint x="310" y="195" />
              <mxPoint x="310" y="420" />
            </Array>
          </mxGeometry>
        </mxCell>
        <mxCell id="yHfhA7FNbgSCrcxVdlkF-67" value="М" style="edgeLabel;html=1;align=center;verticalAlign=middle;resizable=0;points=[];" vertex="1" connectable="0" parent="yHfhA7FNbgSCrcxVdlkF-66">
          <mxGeometry x="-0.9457" y="-3" relative="1" as="geometry">
            <mxPoint as="offset" />
          </mxGeometry>
        </mxCell>
        <mxCell id="yHfhA7FNbgSCrcxVdlkF-68" value="1" style="edgeLabel;html=1;align=center;verticalAlign=middle;resizable=0;points=[];" vertex="1" connectable="0" parent="yHfhA7FNbgSCrcxVdlkF-66">
          <mxGeometry x="0.9358" y="1" relative="1" as="geometry">
            <mxPoint as="offset" />
          </mxGeometry>
        </mxCell>
        <mxCell id="yHfhA7FNbgSCrcxVdlkF-3" value="Сотрудники" style="rounded=0;whiteSpace=wrap;html=1;" vertex="1" parent="1">
          <mxGeometry x="140" y="150" width="120" height="60" as="geometry" />
        </mxCell>
        <mxCell id="yHfhA7FNbgSCrcxVdlkF-5" value="Генеральный директор" style="rounded=0;whiteSpace=wrap;html=1;" vertex="1" parent="1">
          <mxGeometry x="650" y="150" width="120" height="60" as="geometry" />
        </mxCell>
        <mxCell id="yHfhA7FNbgSCrcxVdlkF-15" style="edgeStyle=orthogonalEdgeStyle;rounded=0;orthogonalLoop=1;jettySize=auto;html=1;exitX=0.5;exitY=1;exitDx=0;exitDy=0;entryX=0.5;entryY=0;entryDx=0;entryDy=0;endArrow=none;endFill=0;" edge="1" parent="1" source="yHfhA7FNbgSCrcxVdlkF-7" target="yHfhA7FNbgSCrcxVdlkF-9">
          <mxGeometry relative="1" as="geometry" />
        </mxCell>
        <mxCell id="yHfhA7FNbgSCrcxVdlkF-29" value="1" style="edgeLabel;html=1;align=center;verticalAlign=middle;resizable=0;points=[];" vertex="1" connectable="0" parent="yHfhA7FNbgSCrcxVdlkF-15">
          <mxGeometry x="0.5222" y="1" relative="1" as="geometry">
            <mxPoint y="4" as="offset" />
          </mxGeometry>
        </mxCell>
        <mxCell id="yHfhA7FNbgSCrcxVdlkF-30" value="1" style="edgeLabel;html=1;align=center;verticalAlign=middle;resizable=0;points=[];" vertex="1" connectable="0" parent="yHfhA7FNbgSCrcxVdlkF-15">
          <mxGeometry x="-0.5222" relative="1" as="geometry">
            <mxPoint y="-4" as="offset" />
          </mxGeometry>
        </mxCell>
        <mxCell id="yHfhA7FNbgSCrcxVdlkF-7" value="&lt;b&gt;Компания по производству одежды&lt;/b&gt;" style="rounded=0;whiteSpace=wrap;html=1;" vertex="1" parent="1">
          <mxGeometry x="440" y="270" width="120" height="60" as="geometry" />
        </mxCell>
        <mxCell id="yHfhA7FNbgSCrcxVdlkF-48" style="edgeStyle=orthogonalEdgeStyle;rounded=0;orthogonalLoop=1;jettySize=auto;html=1;exitX=0.5;exitY=1;exitDx=0;exitDy=0;entryX=0.5;entryY=0;entryDx=0;entryDy=0;endArrow=none;endFill=0;" edge="1" parent="1" source="yHfhA7FNbgSCrcxVdlkF-8" target="yHfhA7FNbgSCrcxVdlkF-46">
          <mxGeometry relative="1" as="geometry" />
        </mxCell>
        <mxCell id="yHfhA7FNbgSCrcxVdlkF-49" value="М" style="edgeLabel;html=1;align=center;verticalAlign=middle;resizable=0;points=[];" vertex="1" connectable="0" parent="yHfhA7FNbgSCrcxVdlkF-48">
          <mxGeometry x="-0.7905" y="-1" relative="1" as="geometry">
            <mxPoint as="offset" />
          </mxGeometry>
        </mxCell>
        <mxCell id="yHfhA7FNbgSCrcxVdlkF-50" value="М" style="edgeLabel;html=1;align=center;verticalAlign=middle;resizable=0;points=[];" vertex="1" connectable="0" parent="yHfhA7FNbgSCrcxVdlkF-48">
          <mxGeometry x="0.7469" relative="1" as="geometry">
            <mxPoint as="offset" />
          </mxGeometry>
        </mxCell>
        <mxCell id="yHfhA7FNbgSCrcxVdlkF-8" value="Филиал магазина" style="rounded=0;whiteSpace=wrap;html=1;" vertex="1" parent="1">
          <mxGeometry x="294" y="450" width="120" height="60" as="geometry" />
        </mxCell>
        <mxCell id="yHfhA7FNbgSCrcxVdlkF-24" style="edgeStyle=orthogonalEdgeStyle;rounded=0;orthogonalLoop=1;jettySize=auto;html=1;exitX=0.5;exitY=1;exitDx=0;exitDy=0;entryX=1;entryY=0.5;entryDx=0;entryDy=0;endArrow=none;endFill=0;" edge="1" parent="1" source="yHfhA7FNbgSCrcxVdlkF-9" target="yHfhA7FNbgSCrcxVdlkF-8">
          <mxGeometry relative="1" as="geometry" />
        </mxCell>
        <mxCell id="yHfhA7FNbgSCrcxVdlkF-41" value="M" style="edgeLabel;html=1;align=center;verticalAlign=middle;resizable=0;points=[];" vertex="1" connectable="0" parent="yHfhA7FNbgSCrcxVdlkF-24">
          <mxGeometry x="0.8892" y="1" relative="1" as="geometry">
            <mxPoint as="offset" />
          </mxGeometry>
        </mxCell>
        <mxCell id="yHfhA7FNbgSCrcxVdlkF-42" value="1" style="edgeLabel;html=1;align=center;verticalAlign=middle;resizable=0;points=[];" vertex="1" connectable="0" parent="yHfhA7FNbgSCrcxVdlkF-24">
          <mxGeometry x="-0.8892" relative="1" as="geometry">
            <mxPoint as="offset" />
          </mxGeometry>
        </mxCell>
        <mxCell id="yHfhA7FNbgSCrcxVdlkF-40" style="edgeStyle=orthogonalEdgeStyle;rounded=0;orthogonalLoop=1;jettySize=auto;html=1;exitX=0.75;exitY=1;exitDx=0;exitDy=0;entryX=0.5;entryY=0;entryDx=0;entryDy=0;endArrow=none;endFill=0;" edge="1" parent="1" source="yHfhA7FNbgSCrcxVdlkF-9" target="yHfhA7FNbgSCrcxVdlkF-2">
          <mxGeometry relative="1" as="geometry" />
        </mxCell>
        <mxCell id="yHfhA7FNbgSCrcxVdlkF-43" value="1" style="edgeLabel;html=1;align=center;verticalAlign=middle;resizable=0;points=[];" vertex="1" connectable="0" parent="yHfhA7FNbgSCrcxVdlkF-40">
          <mxGeometry x="-0.9364" y="1" relative="1" as="geometry">
            <mxPoint as="offset" />
          </mxGeometry>
        </mxCell>
        <mxCell id="yHfhA7FNbgSCrcxVdlkF-44" value="M" style="edgeLabel;html=1;align=center;verticalAlign=middle;resizable=0;points=[];" vertex="1" connectable="0" parent="yHfhA7FNbgSCrcxVdlkF-40">
          <mxGeometry x="0.9338" y="1" relative="1" as="geometry">
            <mxPoint as="offset" />
          </mxGeometry>
        </mxCell>
        <mxCell id="yHfhA7FNbgSCrcxVdlkF-9" value="Головной офис" style="rounded=0;whiteSpace=wrap;html=1;" vertex="1" parent="1">
          <mxGeometry x="440" y="390" width="120" height="60" as="geometry" />
        </mxCell>
        <mxCell id="yHfhA7FNbgSCrcxVdlkF-46" value="Директор филиала" style="rounded=0;whiteSpace=wrap;html=1;" vertex="1" parent="1">
          <mxGeometry x="294" y="580" width="120" height="60" as="geometry" />
        </mxCell>
        <mxCell id="yHfhA7FNbgSCrcxVdlkF-53" style="edgeStyle=orthogonalEdgeStyle;rounded=0;orthogonalLoop=1;jettySize=auto;html=1;exitX=1;exitY=0.5;exitDx=0;exitDy=0;entryX=0;entryY=0.75;entryDx=0;entryDy=0;endArrow=none;endFill=0;" edge="1" parent="1" source="yHfhA7FNbgSCrcxVdlkF-51" target="yHfhA7FNbgSCrcxVdlkF-8">
          <mxGeometry relative="1" as="geometry" />
        </mxCell>
        <mxCell id="yHfhA7FNbgSCrcxVdlkF-51" value="Клиент" style="rounded=0;whiteSpace=wrap;html=1;" vertex="1" parent="1">
          <mxGeometry x="20" y="280" width="120" height="60" as="geometry" />
        </mxCell>
        <mxCell id="yHfhA7FNbgSCrcxVdlkF-61" style="edgeStyle=orthogonalEdgeStyle;rounded=0;orthogonalLoop=1;jettySize=auto;html=1;exitX=0;exitY=0.5;exitDx=0;exitDy=0;entryX=1;entryY=0.5;entryDx=0;entryDy=0;endArrow=none;endFill=0;" edge="1" parent="1" source="yHfhA7FNbgSCrcxVdlkF-54" target="yHfhA7FNbgSCrcxVdlkF-59">
          <mxGeometry relative="1" as="geometry" />
        </mxCell>
        <mxCell id="yHfhA7FNbgSCrcxVdlkF-54" value="Склад" style="rounded=0;whiteSpace=wrap;html=1;" vertex="1" parent="1">
          <mxGeometry x="630" y="670" width="120" height="60" as="geometry" />
        </mxCell>
        <mxCell id="yHfhA7FNbgSCrcxVdlkF-58" style="edgeStyle=orthogonalEdgeStyle;rounded=0;orthogonalLoop=1;jettySize=auto;html=1;exitX=0.5;exitY=1;exitDx=0;exitDy=0;entryX=0.5;entryY=0;entryDx=0;entryDy=0;endArrow=none;endFill=0;" edge="1" parent="1" source="yHfhA7FNbgSCrcxVdlkF-55" target="yHfhA7FNbgSCrcxVdlkF-54">
          <mxGeometry relative="1" as="geometry" />
        </mxCell>
        <mxCell id="yHfhA7FNbgSCrcxVdlkF-55" value="Производство" style="rhombus;whiteSpace=wrap;html=1;" vertex="1" parent="1">
          <mxGeometry x="620" y="600" width="140" height="40" as="geometry" />
        </mxCell>
        <mxCell id="yHfhA7FNbgSCrcxVdlkF-62" style="edgeStyle=orthogonalEdgeStyle;rounded=0;orthogonalLoop=1;jettySize=auto;html=1;exitX=0;exitY=0.5;exitDx=0;exitDy=0;entryX=1;entryY=0.75;entryDx=0;entryDy=0;endArrow=none;endFill=0;" edge="1" parent="1" source="yHfhA7FNbgSCrcxVdlkF-59" target="yHfhA7FNbgSCrcxVdlkF-8">
          <mxGeometry relative="1" as="geometry" />
        </mxCell>
        <mxCell id="yHfhA7FNbgSCrcxVdlkF-59" value="Транспортировка" style="rhombus;whiteSpace=wrap;html=1;" vertex="1" parent="1">
          <mxGeometry x="460" y="665" width="130" height="70" as="geometry" />
        </mxCell>
      </root>
    </mxGraphModel>
  </diagram>
</mxfile>
